<?xml version="1.0" encoding="UTF-8" standalone="no"?> <!-- Created with Vectornator for iOS (http://vectornator.io/) --><!DOCTYPE svg PUBLIC "-//W3C//DTD SVG 1.1//EN" "http://www.w3.org/Graphics/SVG/1.1/DTD/svg11.dtd">
<svg style="fill-rule:evenodd;clip-rule:evenodd;stroke-linecap:round;stroke-linejoin:round;" xmlns:vectornator="http://vectornator.io" xmlns:xlink="http://www.w3.org/1999/xlink" xmlns="http://www.w3.org/2000/svg" xml:space="preserve" version="1.1" viewBox="0 0 330 220">
<metadata>
<vectornator:setting key="DimensionsVisible" value="1"/>
<vectornator:setting key="New" value="1"/>
<vectornator:setting key="SnapToPoints" value="0"/>
<vectornator:setting key="GuidesVisible" value="1"/>
<vectornator:setting key="RulersVisible" value="1"/>
<vectornator:setting key="CMYKEnabledKey" value="0"/>
<vectornator:setting key="SnapToEdges" value="0"/>
<vectornator:setting key="DisplayWhiteBackground" value="0"/>
<vectornator:setting key="SnapToGuides" value="1"/>
<vectornator:setting key="GridSpacing" value="36"/>
<vectornator:setting key="Units" value="Pixels"/>
<vectornator:setting key="DynamicGuides" value="0"/>
<vectornator:setting key="SnapToGrid" value="0"/>
</metadata>
<defs/>
<g id="Layer 1" vectornator:layerName="Layer 1">
<g opacity="1">
<path d="M100.75+19.4471C51.0447+19.4471+10.7503+59.7415+10.7503+109.447C10.7503+159.153+51.0447+199.447+100.75+199.447C150.456+199.447+190.75+159.153+190.75+109.447C190.75+59.7415+150.456+19.4471+100.75+19.4471ZM100.75+79.4471C117.319+79.4471+130.75+92.8786+130.75+109.447C130.75+126.016+117.319+139.447+100.75+139.447C84.1818+139.447+70.7503+126.016+70.7503+109.447C70.7503+92.8786+84.1818+79.4471+100.75+79.4471Z" opacity="1" fill="#a550f2"/>
<path d="M220.75+19.4471C171.045+19.4471+130.75+59.7415+130.75+109.447C130.75+159.153+171.045+199.447+220.75+199.447C245.603+199.447+268.089+189.359+284.375+173.072L241.969+130.666C236.54+136.095+229.035+139.447+220.75+139.447C204.182+139.447+190.75+126.016+190.75+109.447C190.75+92.8786+204.182+79.4471+220.75+79.4471C229.035+79.4471+236.54+82.7994+241.969+88.2284L284.375+45.8221C268.089+29.5353+245.603+19.4471+220.75+19.4471Z" opacity="1" fill="#393ddc"/>
<path stroke="#a550f2" stroke-width="1" d="M100.25+19.4471L100.25+19.4471C149.68+19.4471+189.75+59.5176+189.75+108.947L189.75+108.947C189.75+158.377+149.68+198.447+100.25+198.447L100.25+198.447C50.8208+198.447+10.7503+158.377+10.7503+108.947L10.7503+108.947C10.7503+59.5176+50.8208+19.4471+100.25+19.4471Z" fill="none" stroke-linecap="round" opacity="1" stroke-linejoin="round"/>
</g>
</g>
</svg>
