<?xml version="1.0" encoding="UTF-8" standalone="no"?> <!-- Created with Vectornator for iOS (http://vectornator.io/) --><!DOCTYPE svg PUBLIC "-//W3C//DTD SVG 1.1//EN" "http://www.w3.org/Graphics/SVG/1.1/DTD/svg11.dtd">
<svg style="fill-rule:evenodd;clip-rule:evenodd;stroke-linecap:round;stroke-linejoin:round;" xmlns:vectornator="http://vectornator.io" xmlns:xlink="http://www.w3.org/1999/xlink" xmlns="http://www.w3.org/2000/svg" xml:space="preserve" version="1.1" viewBox="0 0 103.696 103.696">
<metadata>
<vectornator:setting key="RulersVisible" value="1"/>
<vectornator:setting key="Units" value="Pixels"/>
<vectornator:setting key="DynamicGuides" value="1"/>
<vectornator:setting key="GuidesVisible" value="1"/>
<vectornator:setting key="CMYKEnabledKey" value="0"/>
<vectornator:setting key="SnapToGuides" value="1"/>
<vectornator:setting key="GridSpacing" value="36"/>
</metadata>
<defs/>
<g id="Untitled" vectornator:layerName="Untitled">
<path d="M74.836+62.887C70.993+71.774+61.993+77.516+51.908+77.516C41.607+77.516+32.554+71.745+28.844+62.813C28.208+61.284+28.933+59.528+30.464+58.893C30.84+58.737+31.23+58.663+31.614+58.663C32.79+58.663+33.906+59.358+34.385+60.513C37.162+67.199+44.04+71.517+51.908+71.517C59.597+71.517+66.435+67.196+69.329+60.507C69.987+58.986+71.753+58.284+73.273+58.943C74.793+59.602+75.494+61.366+74.836+62.887ZM27.409+46.465L40.391+46.465C44.518+46.465+47.87+42.665+47.98+37.932L55.718+37.932C55.827+42.665+59.179+46.465+63.306+46.465L76.289+46.465C80.486+46.465+83.89+42.539+83.89+37.694L83.89+37.285C83.89+32.441+80.487+28.514+76.289+28.514L63.307+28.514C59.91+28.514+57.034+31.088+56.061+34.639L47.638+34.639C46.665+31.089+43.789+28.514+40.392+28.514L27.409+28.514C23.212+28.514+19.809+32.44+19.809+37.285L19.809+37.694C19.809+42.538+23.211+46.465+27.409+46.465ZM58.707+37.286C58.707+34.104+60.77+31.515+63.308+31.515L76.289+31.515C78.825+31.515+80.89+34.104+80.89+37.286L80.89+37.695C80.89+40.877+78.827+43.466+76.289+43.466L63.307+43.466C60.77+43.466+58.706+40.877+58.706+37.695L58.706+37.286L58.707+37.286ZM22.809+37.286C22.809+34.104+24.872+31.515+27.409+31.515L40.391+31.515C42.927+31.515+44.991+34.104+44.991+37.286L44.991+37.695C44.991+40.877+42.928+43.466+40.391+43.466L27.409+43.466C24.873+43.466+22.809+40.877+22.809+37.695C22.809+37.695+22.809+37.286+22.809+37.286ZM30.384+37.489C30.384+35.72+31.819+34.285+33.587+34.285C35.355+34.285+36.791+35.72+36.791+37.489C36.791+39.26+35.356+40.694+33.587+40.694C31.818+40.694+30.384+39.26+30.384+37.489ZM66.594+37.489C66.594+35.72+68.03+34.285+69.797+34.285C71.564+34.285+73.001+35.72+73.001+37.489C73.001+39.26+71.566+40.694+69.797+40.694C68.029+40.694+66.594+39.26+66.594+37.489ZM85.467+103.696L18.23+103.696C8.179+103.696+0+95.518+0+85.467L0+18.23C0+8.178+8.179+0+18.23+0L85.465+0C95.518+0+103.695+8.178+103.695+18.23L103.695+85.465C103.697+95.518+95.518+103.696+85.467+103.696ZM18.23+8.579C12.909+8.579+8.579+12.909+8.579+18.23L8.579+85.465C8.579+90.786+12.909+95.116+18.23+95.116L85.465+95.116C90.786+95.116+95.116+90.786+95.116+85.465L95.116+18.23C95.116+12.909+90.786+8.579+85.465+8.579C85.465+8.579+18.23+8.579+18.23+8.579Z" opacity="1" fill="#c8c8c8"/>
</g>
</svg>
