<?xml version="1.0" encoding="UTF-8" standalone="no"?> <!-- Created with Vectornator for iOS (http://vectornator.io/) --><!DOCTYPE svg PUBLIC "-//W3C//DTD SVG 1.1//EN" "http://www.w3.org/Graphics/SVG/1.1/DTD/svg11.dtd">
<svg style="fill-rule:evenodd;clip-rule:evenodd;stroke-linecap:round;stroke-linejoin:round;" xmlns:vectornator="http://vectornator.io" xmlns:xlink="http://www.w3.org/1999/xlink" xmlns="http://www.w3.org/2000/svg" xml:space="preserve" version="1.1" viewBox="0 0 330 330">
<metadata>
<vectornator:setting key="RulersVisible" value="1"/>
<vectornator:setting key="Units" value="Points"/>
<vectornator:setting key="DynamicGuides" value="1"/>
<vectornator:setting key="GuidesVisible" value="1"/>
<vectornator:setting key="CMYKEnabledKey" value="0"/>
<vectornator:setting key="SnapToGuides" value="1"/>
<vectornator:setting key="GridSpacing" value="36"/>
</metadata>
<defs/>
<g id="Untitled" vectornator:layerName="Untitled">
<path d="M245+109.98L243.333+109.98C229.162+74.155+194.357+50.02+155+50.02C104.072+50.02+62.374+90.303+60.098+140.679C26.17+145.501+0+174.742+0+209.98C0+248.578+31.402+279.98+70+279.98L245+279.98C291.869+279.98+330+241.849+330+194.98C330+148.111+291.869+109.98+245+109.98ZM245+249.98L70+249.98C47.944+249.98+30+232.036+30+209.98C30+187.924+47.944+169.98+70+169.98L75+169.98C83.284+169.98+90+163.264+90+154.98L90+145.019C90+109.178+119.159+80.019+155+80.019C184.664+80.019+210.547+100.048+217.944+128.726C219.652+135.351+225.627+139.98+232.469+139.98L245+139.98C275.327+139.98+300+164.653+300+194.98C300+225.308+275.327+249.98+245+249.98Z" opacity="1" fill="#ffffff"/>
<path d="M147.023+178.295L140.606+178.295L140.606+207.354C140.606+211.179+139.763+213.996+138.077+215.806C136.39+217.616+134.19+218.521+131.475+218.521C128.555+218.521+126.293+217.575+124.689+215.683C123.085+213.791+122.283+211.014+122.283+207.354L122.283+137.761C122.283+133.812+123.167+130.954+124.936+129.185C126.704+127.417+129.563+126.532+133.511+126.532L163.31+126.532C167.423+126.532+170.94+126.707+173.86+127.057C176.781+127.406+179.413+128.116+181.757+129.185C184.595+130.378+187.104+132.085+189.284+134.306C191.464+136.527+193.12+139.108+194.251+142.049C195.382+144.99+195.947+148.105+195.947+151.396C195.947+158.141+194.045+163.529+190.241+167.56C186.436+171.591+180.667+174.449+172.935+176.136C176.184+177.863+179.29+180.413+182.251+183.786C185.212+187.159+187.855+190.747+190.179+194.552C192.503+198.356+194.313+201.791+195.608+204.855C196.904+207.919+197.552+210.027+197.552+211.179C197.552+212.372+197.171+213.554+196.41+214.726C195.649+215.899+194.611+216.824+193.295+217.503C191.978+218.181+190.457+218.521+188.729+218.521C186.673+218.521+184.945+218.037+183.547+217.071C182.148+216.104+180.945+214.881+179.937+213.4C178.93+211.919+177.562+209.739+175.835+206.86L168.493+194.644C165.86+190.161+163.506+186.747+161.429+184.403C159.352+182.058+157.244+180.454+155.105+179.591C152.966+178.727+150.272+178.295+147.023+178.295ZM157.511+140.29L140.606+140.29L140.606+165.154L157.017+165.154C161.418+165.154+165.12+164.773+168.123+164.012C171.125+163.252+173.418+161.956+175.002+160.126C176.585+158.295+177.377+155.776+177.377+152.568C177.377+150.059+176.739+147.848+175.464+145.936C174.189+144.023+172.421+142.594+170.159+141.648C168.02+140.743+163.804+140.29+157.511+140.29Z" opacity="1" fill="#ffffff"/>
</g>
</svg>
